<svg width="900" height="600" viewBox="0 0 900 600" fill="none" xmlns="http://www.w3.org/2000/svg">
  <defs>
    <linearGradient id="bg" x1="0" y1="0" x2="1" y2="1">
      <stop offset="0%" stop-color="#E6F7F6"/>
      <stop offset="100%" stop-color="#D8EEF3"/>
    </linearGradient>
    <radialGradient id="core" cx="0.5" cy="0.5" r="0.5">
      <stop offset="0%" stop-color="#9EE9E5"/>
      <stop offset="50%" stop-color="#5CCDCB"/>
      <stop offset="100%" stop-color="#1F6B71"/>
    </radialGradient>
    <radialGradient id="glow" cx="0.5" cy="0.5" r="0.7">
      <stop offset="0%" stop-color="#9EE9E5" stop-opacity="0.9"/>
      <stop offset="100%" stop-color="#9EE9E5" stop-opacity="0"/>
    </radialGradient>
    <filter id="soft" x="-50%" y="-50%" width="200%" height="200%">
      <feGaussianBlur stdDeviation="12" />
    </filter>
  </defs>
  <rect width="900" height="600" rx="40" fill="url(#bg)"/>
  <circle cx="470" cy="300" r="220" fill="url(#glow)" filter="url(#soft)"/>
  <ellipse cx="470" cy="300" rx="200" ry="160" fill="url(#core)" opacity="0.9"/>
  <path
    d="M270 260C250 220 270 170 330 150C360 120 420 110 470 120C520 90 600 100 640 150C690 180 710 240 690 280C710 320 700 380 650 410C630 460 560 490 500 470C430 500 350 490 310 440C260 420 240 360 260 320C240 300 240 280 270 260Z"
    fill="url(#core)"
    opacity="0.7"
  />
  <path d="M340 220C380 200 430 200 470 220" stroke="#BFF3F0" stroke-width="10" stroke-linecap="round"/>
  <path d="M320 300C380 270 450 270 510 300" stroke="#BFF3F0" stroke-width="10" stroke-linecap="round"/>
  <path d="M360 360C410 340 470 345 520 370" stroke="#BFF3F0" stroke-width="10" stroke-linecap="round"/>
  <circle cx="410" cy="240" r="18" fill="#E7FFFD"/>
  <circle cx="520" cy="260" r="14" fill="#E7FFFD"/>
  <circle cx="450" cy="340" r="16" fill="#E7FFFD"/>
</svg>
